<?xml version="1.0" standalone="no"?>
 <!DOCTYPE svg PUBLIC "-//W3C//DTD SVG 1.1//EN" 
 "http://www.w3.org/Graphics/SVG/1.1/DTD/svg11.dtd"> 
<svg xmlns="http://www.w3.org/2000/svg" version="1.1" 
    width="41.9989cm" height="29.7002cm" viewBox="0 0 165349 116929 ">
<title>SVG Picture created as lab-03.sch.svg date 2015/03/10 21:04:01 </title>
  <desc>Picture generated by Eeschema-SVG </desc>
<g style="fill:#000000; fill-opacity:1;stroke:#000000; stroke-opacity:1;
stroke-linecap:round; stroke-linejoin:round; "
 transform="translate(0 0) scale(1 1)">
</g>
<g style="fill:#000000; fill-opacity:0.0; 
stroke:#000000; stroke-width:0; stroke-opacity:1; 
stroke-linecap:round; stroke-linejoin:round;">
</g>
<g style="fill:#000000; fill-opacity:0.0; 
stroke:#000000; stroke-width:100; stroke-opacity:1; 
stroke-linecap:round; stroke-linejoin:round;">
<circle cx="12000" cy="23000" r="1410" /> 
</g>
<g style="fill:#000000; fill-opacity:0.0; 
stroke:#000000; stroke-width:120; stroke-opacity:1; 
stroke-linecap:round; stroke-linejoin:round;">
<path d="M11770 22290
L12230 22290
" />
<path d="M12000 22520
L12000 22060
" />
<path d="M11770 24040
L12230 24040
" />
</g>
<g style="fill:#000000; fill-opacity:0.0; 
stroke:#000000; stroke-width:100; stroke-opacity:1; 
stroke-linecap:round; stroke-linejoin:round;">
<polyline fill="none;"
points="12000,25500
12000,24500
" /> 
<polyline fill="none;"
points="12000,20500
12000,21500
" /> 
<path d="M12000 20500
L12000 20500
" />
<path d="M11870 20320
L11870 20670
" />
<path d="M11870 20490
L11270 20490
L11360 20550
L11410 20610
L11440 20670
" />
<path d="M12000 25500
L12000 25500
" />
<path d="M11330 25670
L11300 25640
L11270 25580
L11270 25440
L11300 25380
L11330 25350
L11390 25320
L11440 25320
L11530 25350
L11870 25690
L11870 25320
" />
<path d="M13870 22120
L14070 22720
L14270 22120
" />
<path d="M14380 22320
L14610 22320
" />
<path d="M14460 22120
L14460 22640
L14490 22690
L14550 22720
L14610 22720
" />
<path d="M14800 22720
L14800 22120
" />
<path d="M15060 22720
L15060 22410
L15030 22350
L14970 22320
L14890 22320
L14830 22350
L14800 22380
" />
<path d="M13880 23120
L14080 23720
L14280 23120
" />
<path d="M14390 23320
L14620 23320
" />
<path d="M14470 23120
L14470 23640
L14500 23690
L14560 23720
L14620 23720
" />
<path d="M14810 23720
L14810 23120
" />
<path d="M15070 23720
L15070 23410
L15040 23350
L14980 23320
L14900 23320
L14840 23350
L14810 23380
" />
<path d="M15580 23690
L15520 23720
L15410 23720
L15350 23690
L15320 23640
L15320 23410
L15350 23350
L15410 23320
L15520 23320
L15580 23350
L15610 23410
L15610 23460
L15320 23520
" />
<path d="M15810 23320
L15950 23720
L16090 23320
" />
</g>
<g style="fill:#000000; fill-opacity:0.0; 
stroke:#000000; stroke-width:0; stroke-opacity:1; 
stroke-linecap:round; stroke-linejoin:round;">
</g>
<g style="fill:#000000; fill-opacity:0.0; 
stroke:#000000; stroke-width:150; stroke-opacity:1; 
stroke-linecap:round; stroke-linejoin:round;">
<polyline fill="none;"
points="11500,31000
12500,31000
" /> 
</g>
<g style="fill:#000000; fill-opacity:0.0; 
stroke:#000000; stroke-width:100; stroke-opacity:1; 
stroke-linecap:round; stroke-linejoin:round;">
<polyline fill="none;"
points="12000,30500
12000,31000
" /> 
</g>
<g style="fill:#000000; fill-opacity:0.0; 
stroke:#000000; stroke-width:80; stroke-opacity:1; 
stroke-linecap:round; stroke-linejoin:round;">
<path d="M11690 31250
L11660 31230
L11600 31230
L11540 31250
L11500 31290
L11490 31330
L11470 31400
L11470 31460
L11490 31540
L11500 31570
L11540 31610
L11600 31630
L11640 31630
L11690 31610
L11710 31590
L11710 31460
L11640 31460
" />
<path d="M11890 31630
L11890 31230
L12110 31630
L12110 31230
" />
<path d="M12310 31630
L12310 31230
L12400 31230
L12460 31250
L12500 31290
L12510 31330
L12530 31400
L12530 31460
L12510 31540
L12500 31570
L12460 31610
L12400 31630
L12310 31630
" />
</g>
<g style="fill:#000000; fill-opacity:0.0; 
stroke:#000000; stroke-width:200; stroke-opacity:1; 
stroke-linecap:round; stroke-linejoin:round;">
<path d="M26190 16420
L26670 16420
" />
<path d="M26100 16700
L26430 15700
L26760 16700
" />
<path d="M26570 30180
L26710 30230
L26760 30270
L26810 30370
L26810 30510
L26760 30610
L26710 30650
L26620 30700
L26240 30700
L26240 29700
L26570 29700
L26670 29750
L26710 29800
L26760 29890
L26760 29990
L26710 30080
L26670 30130
L26570 30180
L26240 30180
" />
</g>
<g style="fill:#000000; fill-opacity:0.0; 
stroke:#000000; stroke-width:0; stroke-opacity:1; 
stroke-linecap:round; stroke-linejoin:round;">
</g>
<g style="fill:#000000; fill-opacity:0.0; 
stroke:#000000; stroke-width:120; stroke-opacity:1; 
stroke-linecap:round; stroke-linejoin:round;">
<rect x="15500" y="15500" width="3000" height="1000" rx="0" />
</g>
<g style="fill:#000000; fill-opacity:0.0; 
stroke:#000000; stroke-width:100; stroke-opacity:1; 
stroke-linecap:round; stroke-linejoin:round;">
<path d="M18500 16000
L19500 16000
" />
<path d="M15500 16000
L14500 16000
" />
<path d="M16910 15220
L16710 14940
" />
<path d="M16560 15220
L16560 14620
L16790 14620
L16850 14650
L16880 14680
L16910 14740
L16910 14820
L16880 14880
L16850 14910
L16790 14940
L16560 14940
" />
<path d="M17480 15220
L17130 15220
" />
<path d="M17310 15220
L17310 14620
L17250 14710
L17190 14760
L17130 14790
" />
<path d="M16550 15820
L16550 16220
" />
<path d="M16410 15590
L16260 16020
L16640 16020
" />
<path d="M16810 15620
L17210 15620
L16950 16220
" />
<path d="M17550 15620
L17600 15620
L17660 15650
L17690 15680
L17720 15740
L17750 15850
L17750 15990
L17720 16110
L17690 16160
L17660 16190
L17600 16220
L17550 16220
L17490 16190
L17460 16160
L17430 16110
L17400 15990
L17400 15850
L17430 15740
L17460 15680
L17490 15650
L17550 15620
" />
</g>
<g style="fill:#000000; fill-opacity:0.0; 
stroke:#000000; stroke-width:0; stroke-opacity:1; 
stroke-linecap:round; stroke-linejoin:round;">
</g>
<g style="fill:#000000; fill-opacity:0.0; 
stroke:#000000; stroke-width:120; stroke-opacity:1; 
stroke-linecap:round; stroke-linejoin:round;">
<rect x="20000" y="21500" width="1000" height="3000" rx="0" />
</g>
<g style="fill:#000000; fill-opacity:0.0; 
stroke:#000000; stroke-width:100; stroke-opacity:1; 
stroke-linecap:round; stroke-linejoin:round;">
<path d="M20500 21500
L20500 20500
" />
<path d="M20500 24500
L20500 25500
" />
<path d="M19720 23080
L19440 23280
" />
<path d="M19720 23430
L19120 23430
L19120 23200
L19150 23140
L19180 23110
L19240 23080
L19320 23080
L19380 23110
L19410 23140
L19440 23200
L19440 23430
" />
<path d="M19180 22860
L19150 22830
L19120 22770
L19120 22630
L19150 22570
L19180 22540
L19240 22510
L19290 22510
L19380 22540
L19720 22880
L19720 22510
" />
<path d="M20720 23500
L20720 23850
" />
<path d="M20720 23670
L20120 23670
L20210 23730
L20260 23790
L20290 23850
" />
<path d="M20660 23250
L20690 23220
L20720 23250
L20690 23280
L20660 23250
L20720 23250
" />
<path d="M20180 22990
L20150 22960
L20120 22900
L20120 22760
L20150 22700
L20180 22670
L20240 22640
L20290 22640
L20380 22670
L20720 23010
L20720 22640
" />
<path d="M20720 22390
L20120 22390
" />
<path d="M20490 22330
L20720 22160
" />
<path d="M20320 22160
L20550 22390
" />
<path d="M12000 25500
L12000 30000
" />
<path d="M12000 30000
L12000 30500
" />
</g>
<g style="fill:#000000; fill-opacity:0.0; 
stroke:#000000; stroke-width:0; stroke-opacity:1; 
stroke-linecap:round; stroke-linejoin:round;">
</g>
<g style="fill:#000000; fill-opacity:1.0; 
stroke:#000000; stroke-width:100; stroke-opacity:1; 
stroke-linecap:round; stroke-linejoin:round;">
<circle cx="12000" cy="30000" r="200" /> 
</g>
<g style="fill:#000000; fill-opacity:1.0; 
stroke:#000000; stroke-width:100; stroke-opacity:1; 
stroke-linecap:round; stroke-linejoin:round;stroke-dasharray:118.11,218.11;">
</g>
<g style="fill:#000000; fill-opacity:0.0; 
stroke:#000000; stroke-width:100; stroke-opacity:1; 
stroke-linecap:round; stroke-linejoin:round;stroke-dasharray:118.11,218.11;">
<path d="M25500 29000
L25500 31000
" />
</g>
<g style="fill:#000000; fill-opacity:0.0; 
stroke:#000000; stroke-width:100; stroke-opacity:1; 
stroke-linecap:round; stroke-linejoin:round;">
</g>
<g style="fill:#000000; fill-opacity:0.0; 
stroke:#000000; stroke-width:100; stroke-opacity:1; 
stroke-linecap:round; stroke-linejoin:round;stroke-dasharray:118.11,218.11;">
<path d="M25500 31000
L27500 31000
" />
</g>
<g style="fill:#000000; fill-opacity:0.0; 
stroke:#000000; stroke-width:100; stroke-opacity:1; 
stroke-linecap:round; stroke-linejoin:round;">
</g>
<g style="fill:#000000; fill-opacity:0.0; 
stroke:#000000; stroke-width:100; stroke-opacity:1; 
stroke-linecap:round; stroke-linejoin:round;stroke-dasharray:118.11,218.11;">
<path d="M27500 31000
L27500 29000
" />
</g>
<g style="fill:#000000; fill-opacity:0.0; 
stroke:#000000; stroke-width:100; stroke-opacity:1; 
stroke-linecap:round; stroke-linejoin:round;">
</g>
<g style="fill:#000000; fill-opacity:0.0; 
stroke:#000000; stroke-width:100; stroke-opacity:1; 
stroke-linecap:round; stroke-linejoin:round;stroke-dasharray:118.11,218.11;">
<path d="M27500 29000
L25500 29000
" />
</g>
<g style="fill:#000000; fill-opacity:0.0; 
stroke:#000000; stroke-width:100; stroke-opacity:1; 
stroke-linecap:round; stroke-linejoin:round;">
</g>
<g style="fill:#000000; fill-opacity:0.0; 
stroke:#000000; stroke-width:100; stroke-opacity:1; 
stroke-linecap:round; stroke-linejoin:round;stroke-dasharray:118.11,218.11;">
<path d="M25500 15000
L25500 17000
" />
</g>
<g style="fill:#000000; fill-opacity:0.0; 
stroke:#000000; stroke-width:100; stroke-opacity:1; 
stroke-linecap:round; stroke-linejoin:round;">
</g>
<g style="fill:#000000; fill-opacity:0.0; 
stroke:#000000; stroke-width:100; stroke-opacity:1; 
stroke-linecap:round; stroke-linejoin:round;stroke-dasharray:118.11,218.11;">
<path d="M25500 17000
L27500 17000
" />
</g>
<g style="fill:#000000; fill-opacity:0.0; 
stroke:#000000; stroke-width:100; stroke-opacity:1; 
stroke-linecap:round; stroke-linejoin:round;">
</g>
<g style="fill:#000000; fill-opacity:0.0; 
stroke:#000000; stroke-width:100; stroke-opacity:1; 
stroke-linecap:round; stroke-linejoin:round;stroke-dasharray:118.11,218.11;">
<path d="M27500 17000
L27500 15000
" />
</g>
<g style="fill:#000000; fill-opacity:0.0; 
stroke:#000000; stroke-width:100; stroke-opacity:1; 
stroke-linecap:round; stroke-linejoin:round;">
</g>
<g style="fill:#000000; fill-opacity:0.0; 
stroke:#000000; stroke-width:100; stroke-opacity:1; 
stroke-linecap:round; stroke-linejoin:round;stroke-dasharray:118.11,218.11;">
<path d="M27500 15000
L25500 15000
" />
</g>
<g style="fill:#000000; fill-opacity:0.0; 
stroke:#000000; stroke-width:100; stroke-opacity:1; 
stroke-linecap:round; stroke-linejoin:round;">
<path d="M12000 16000
L12000 20500
" />
<path d="M20500 16000
L20500 20500
" />
<path d="M14500 16000
L12000 16000
" />
</g>
<g style="fill:#000000; fill-opacity:0.0; 
stroke:#000000; stroke-width:0; stroke-opacity:1; 
stroke-linecap:round; stroke-linejoin:round;">
</g>
<g style="fill:#000000; fill-opacity:1.0; 
stroke:#000000; stroke-width:100; stroke-opacity:1; 
stroke-linecap:round; stroke-linejoin:round;">
<circle cx="20500" cy="16000" r="200" /> 
</g>
<g style="fill:#000000; fill-opacity:0.0; 
stroke:#000000; stroke-width:100; stroke-opacity:1; 
stroke-linecap:round; stroke-linejoin:round;">
<path d="M12000 30000
L20500 30000
" />
<path d="M20500 30000
L25500 30000
" />
<path d="M20500 30000
L20500 25500
" />
<path d="M19500 16000
L20500 16000
" />
<path d="M20500 16000
L25500 16000
" />
</g>
<g style="fill:#000000; fill-opacity:0.0; 
stroke:#000000; stroke-width:0; stroke-opacity:1; 
stroke-linecap:round; stroke-linejoin:round;">
</g>
<g style="fill:#000000; fill-opacity:1.0; 
stroke:#000000; stroke-width:100; stroke-opacity:1; 
stroke-linecap:round; stroke-linejoin:round;">
<circle cx="20500" cy="30000" r="200" /> 
</g>
<g style="fill:#000000; fill-opacity:1.0; 
stroke:#000000; stroke-width:0; stroke-opacity:1; 
stroke-linecap:round; stroke-linejoin:round;">
</g>
<g style="fill:#000000; fill-opacity:0.0; 
stroke:#000000; stroke-width:100; stroke-opacity:1; 
stroke-linecap:round; stroke-linejoin:round;">
<circle cx="48500" cy="22500" r="1410" /> 
</g>
<g style="fill:#000000; fill-opacity:0.0; 
stroke:#000000; stroke-width:120; stroke-opacity:1; 
stroke-linecap:round; stroke-linejoin:round;">
<path d="M48270 21790
L48730 21790
" />
<path d="M48500 22020
L48500 21560
" />
<path d="M48270 23540
L48730 23540
" />
</g>
<g style="fill:#000000; fill-opacity:0.0; 
stroke:#000000; stroke-width:100; stroke-opacity:1; 
stroke-linecap:round; stroke-linejoin:round;">
<polyline fill="none;"
points="48500,25000
48500,24000
" /> 
<polyline fill="none;"
points="48500,20000
48500,21000
" /> 
<path d="M48500 20000
L48500 20000
" />
<path d="M48370 19820
L48370 20170
" />
<path d="M48370 19990
L47770 19990
L47860 20050
L47910 20110
L47940 20170
" />
<path d="M48500 25000
L48500 25000
" />
<path d="M47830 25170
L47800 25140
L47770 25080
L47770 24940
L47800 24880
L47830 24850
L47890 24820
L47940 24820
L48030 24850
L48370 25190
L48370 24820
" />
<path d="M50370 21620
L50570 22220
L50770 21620
" />
<path d="M50880 21820
L51110 21820
" />
<path d="M50960 21620
L50960 22140
L50990 22190
L51050 22220
L51110 22220
" />
<path d="M51300 22220
L51300 21620
" />
<path d="M51560 22220
L51560 21910
L51530 21850
L51470 21820
L51390 21820
L51330 21850
L51300 21880
" />
<path d="M50380 22620
L50580 23220
L50780 22620
" />
<path d="M50890 22820
L51120 22820
" />
<path d="M50970 22620
L50970 23140
L51000 23190
L51060 23220
L51120 23220
" />
<path d="M51310 23220
L51310 22620
" />
<path d="M51570 23220
L51570 22910
L51540 22850
L51480 22820
L51400 22820
L51340 22850
L51310 22880
" />
<path d="M52080 23190
L52020 23220
L51910 23220
L51850 23190
L51820 23140
L51820 22910
L51850 22850
L51910 22820
L52020 22820
L52080 22850
L52110 22910
L52110 22960
L51820 23020
" />
<path d="M52310 22820
L52450 23220
L52590 22820
" />
</g>
<g style="fill:#000000; fill-opacity:0.0; 
stroke:#000000; stroke-width:0; stroke-opacity:1; 
stroke-linecap:round; stroke-linejoin:round;">
</g>
<g style="fill:#000000; fill-opacity:0.0; 
stroke:#000000; stroke-width:150; stroke-opacity:1; 
stroke-linecap:round; stroke-linejoin:round;">
<polyline fill="none;"
points="48000,30500
49000,30500
" /> 
</g>
<g style="fill:#000000; fill-opacity:0.0; 
stroke:#000000; stroke-width:100; stroke-opacity:1; 
stroke-linecap:round; stroke-linejoin:round;">
<polyline fill="none;"
points="48500,30000
48500,30500
" /> 
</g>
<g style="fill:#000000; fill-opacity:0.0; 
stroke:#000000; stroke-width:80; stroke-opacity:1; 
stroke-linecap:round; stroke-linejoin:round;">
<path d="M48190 30750
L48160 30730
L48100 30730
L48040 30750
L48000 30790
L47990 30830
L47970 30900
L47970 30960
L47990 31040
L48000 31070
L48040 31110
L48100 31130
L48140 31130
L48190 31110
L48210 31090
L48210 30960
L48140 30960
" />
<path d="M48390 31130
L48390 30730
L48610 31130
L48610 30730
" />
<path d="M48810 31130
L48810 30730
L48900 30730
L48960 30750
L49000 30790
L49010 30830
L49030 30900
L49030 30960
L49010 31040
L49000 31070
L48960 31110
L48900 31130
L48810 31130
" />
</g>
<g style="fill:#000000; fill-opacity:0.0; 
stroke:#000000; stroke-width:200; stroke-opacity:1; 
stroke-linecap:round; stroke-linejoin:round;">
<path d="M62690 15920
L63170 15920
" />
<path d="M62600 16200
L62930 15200
L63260 16200
" />
<path d="M63070 29680
L63210 29730
L63260 29770
L63310 29870
L63310 30010
L63260 30110
L63210 30150
L63120 30200
L62740 30200
L62740 29200
L63070 29200
L63170 29250
L63210 29300
L63260 29390
L63260 29490
L63210 29580
L63170 29630
L63070 29680
L62740 29680
" />
</g>
<g style="fill:#000000; fill-opacity:0.0; 
stroke:#000000; stroke-width:0; stroke-opacity:1; 
stroke-linecap:round; stroke-linejoin:round;">
</g>
<g style="fill:#000000; fill-opacity:0.0; 
stroke:#000000; stroke-width:120; stroke-opacity:1; 
stroke-linecap:round; stroke-linejoin:round;">
<rect x="52000" y="15000" width="3000" height="1000" rx="0" />
</g>
<g style="fill:#000000; fill-opacity:0.0; 
stroke:#000000; stroke-width:100; stroke-opacity:1; 
stroke-linecap:round; stroke-linejoin:round;">
<path d="M55000 15500
L56000 15500
" />
<path d="M52000 15500
L51000 15500
" />
<path d="M53410 14720
L53210 14440
" />
<path d="M53060 14720
L53060 14120
L53290 14120
L53350 14150
L53380 14180
L53410 14240
L53410 14320
L53380 14380
L53350 14410
L53290 14440
L53060 14440
" />
<path d="M53980 14720
L53630 14720
" />
<path d="M53810 14720
L53810 14120
L53750 14210
L53690 14260
L53630 14290
" />
<path d="M53050 15320
L53050 15720
" />
<path d="M52910 15090
L52760 15520
L53140 15520
" />
<path d="M53310 15120
L53710 15120
L53450 15720
" />
<path d="M54050 15120
L54100 15120
L54160 15150
L54190 15180
L54220 15240
L54250 15350
L54250 15490
L54220 15610
L54190 15660
L54160 15690
L54100 15720
L54050 15720
L53990 15690
L53960 15660
L53930 15610
L53900 15490
L53900 15350
L53930 15240
L53960 15180
L53990 15150
L54050 15120
" />
</g>
<g style="fill:#000000; fill-opacity:0.0; 
stroke:#000000; stroke-width:0; stroke-opacity:1; 
stroke-linecap:round; stroke-linejoin:round;">
</g>
<g style="fill:#000000; fill-opacity:0.0; 
stroke:#000000; stroke-width:120; stroke-opacity:1; 
stroke-linecap:round; stroke-linejoin:round;">
<rect x="56500" y="21000" width="1000" height="3000" rx="0" />
</g>
<g style="fill:#000000; fill-opacity:0.0; 
stroke:#000000; stroke-width:100; stroke-opacity:1; 
stroke-linecap:round; stroke-linejoin:round;">
<path d="M57000 21000
L57000 20000
" />
<path d="M57000 24000
L57000 25000
" />
<path d="M56220 22580
L55940 22780
" />
<path d="M56220 22930
L55620 22930
L55620 22700
L55650 22640
L55680 22610
L55740 22580
L55820 22580
L55880 22610
L55910 22640
L55940 22700
L55940 22930
" />
<path d="M55680 22360
L55650 22330
L55620 22270
L55620 22130
L55650 22070
L55680 22040
L55740 22010
L55790 22010
L55880 22040
L56220 22380
L56220 22010
" />
<path d="M57220 23000
L57220 23350
" />
<path d="M57220 23170
L56620 23170
L56710 23230
L56760 23290
L56790 23350
" />
<path d="M57160 22750
L57190 22720
L57220 22750
L57190 22780
L57160 22750
L57220 22750
" />
<path d="M56680 22490
L56650 22460
L56620 22400
L56620 22260
L56650 22200
L56680 22170
L56740 22140
L56790 22140
L56880 22170
L57220 22510
L57220 22140
" />
<path d="M57220 21890
L56620 21890
" />
<path d="M56990 21830
L57220 21660
" />
<path d="M56820 21660
L57050 21890
" />
<path d="M48500 25000
L48500 26000
" />
<path d="M48500 26000
L48500 29500
" />
<path d="M48500 29500
L48500 30000
" />
</g>
<g style="fill:#000000; fill-opacity:0.0; 
stroke:#000000; stroke-width:0; stroke-opacity:1; 
stroke-linecap:round; stroke-linejoin:round;">
</g>
<g style="fill:#000000; fill-opacity:1.0; 
stroke:#000000; stroke-width:100; stroke-opacity:1; 
stroke-linecap:round; stroke-linejoin:round;">
<circle cx="48500" cy="29500" r="200" /> 
</g>
<g style="fill:#000000; fill-opacity:1.0; 
stroke:#000000; stroke-width:100; stroke-opacity:1; 
stroke-linecap:round; stroke-linejoin:round;stroke-dasharray:118.11,218.11;">
</g>
<g style="fill:#000000; fill-opacity:0.0; 
stroke:#000000; stroke-width:100; stroke-opacity:1; 
stroke-linecap:round; stroke-linejoin:round;stroke-dasharray:118.11,218.11;">
<path d="M62000 28500
L62000 30500
" />
</g>
<g style="fill:#000000; fill-opacity:0.0; 
stroke:#000000; stroke-width:100; stroke-opacity:1; 
stroke-linecap:round; stroke-linejoin:round;">
</g>
<g style="fill:#000000; fill-opacity:0.0; 
stroke:#000000; stroke-width:100; stroke-opacity:1; 
stroke-linecap:round; stroke-linejoin:round;stroke-dasharray:118.11,218.11;">
<path d="M62000 30500
L64000 30500
" />
</g>
<g style="fill:#000000; fill-opacity:0.0; 
stroke:#000000; stroke-width:100; stroke-opacity:1; 
stroke-linecap:round; stroke-linejoin:round;">
</g>
<g style="fill:#000000; fill-opacity:0.0; 
stroke:#000000; stroke-width:100; stroke-opacity:1; 
stroke-linecap:round; stroke-linejoin:round;stroke-dasharray:118.11,218.11;">
<path d="M64000 30500
L64000 28500
" />
</g>
<g style="fill:#000000; fill-opacity:0.0; 
stroke:#000000; stroke-width:100; stroke-opacity:1; 
stroke-linecap:round; stroke-linejoin:round;">
</g>
<g style="fill:#000000; fill-opacity:0.0; 
stroke:#000000; stroke-width:100; stroke-opacity:1; 
stroke-linecap:round; stroke-linejoin:round;stroke-dasharray:118.11,218.11;">
<path d="M64000 28500
L62000 28500
" />
</g>
<g style="fill:#000000; fill-opacity:0.0; 
stroke:#000000; stroke-width:100; stroke-opacity:1; 
stroke-linecap:round; stroke-linejoin:round;">
</g>
<g style="fill:#000000; fill-opacity:0.0; 
stroke:#000000; stroke-width:100; stroke-opacity:1; 
stroke-linecap:round; stroke-linejoin:round;stroke-dasharray:118.11,218.11;">
<path d="M62000 14500
L62000 16500
" />
</g>
<g style="fill:#000000; fill-opacity:0.0; 
stroke:#000000; stroke-width:100; stroke-opacity:1; 
stroke-linecap:round; stroke-linejoin:round;">
</g>
<g style="fill:#000000; fill-opacity:0.0; 
stroke:#000000; stroke-width:100; stroke-opacity:1; 
stroke-linecap:round; stroke-linejoin:round;stroke-dasharray:118.11,218.11;">
<path d="M62000 16500
L64000 16500
" />
</g>
<g style="fill:#000000; fill-opacity:0.0; 
stroke:#000000; stroke-width:100; stroke-opacity:1; 
stroke-linecap:round; stroke-linejoin:round;">
</g>
<g style="fill:#000000; fill-opacity:0.0; 
stroke:#000000; stroke-width:100; stroke-opacity:1; 
stroke-linecap:round; stroke-linejoin:round;stroke-dasharray:118.11,218.11;">
<path d="M64000 16500
L64000 14500
" />
</g>
<g style="fill:#000000; fill-opacity:0.0; 
stroke:#000000; stroke-width:100; stroke-opacity:1; 
stroke-linecap:round; stroke-linejoin:round;">
</g>
<g style="fill:#000000; fill-opacity:0.0; 
stroke:#000000; stroke-width:100; stroke-opacity:1; 
stroke-linecap:round; stroke-linejoin:round;stroke-dasharray:118.11,218.11;">
<path d="M64000 14500
L62000 14500
" />
</g>
<g style="fill:#000000; fill-opacity:0.0; 
stroke:#000000; stroke-width:100; stroke-opacity:1; 
stroke-linecap:round; stroke-linejoin:round;">
<path d="M48500 15500
L48500 19000
" />
<path d="M48500 19000
L48500 20000
" />
<path d="M57000 15500
L57000 20000
" />
<path d="M51000 15500
L48500 15500
" />
</g>
<g style="fill:#000000; fill-opacity:0.0; 
stroke:#000000; stroke-width:0; stroke-opacity:1; 
stroke-linecap:round; stroke-linejoin:round;">
</g>
<g style="fill:#000000; fill-opacity:1.0; 
stroke:#000000; stroke-width:100; stroke-opacity:1; 
stroke-linecap:round; stroke-linejoin:round;">
<circle cx="57000" cy="15500" r="200" /> 
</g>
<g style="fill:#000000; fill-opacity:0.0; 
stroke:#000000; stroke-width:100; stroke-opacity:1; 
stroke-linecap:round; stroke-linejoin:round;">
<path d="M48500 29500
L57000 29500
" />
<path d="M57000 29500
L62000 29500
" />
<path d="M57000 29500
L57000 25000
" />
<path d="M56000 15500
L57000 15500
" />
<path d="M57000 15500
L62000 15500
" />
</g>
<g style="fill:#000000; fill-opacity:0.0; 
stroke:#000000; stroke-width:0; stroke-opacity:1; 
stroke-linecap:round; stroke-linejoin:round;">
</g>
<g style="fill:#000000; fill-opacity:1.0; 
stroke:#000000; stroke-width:100; stroke-opacity:1; 
stroke-linecap:round; stroke-linejoin:round;">
<circle cx="57000" cy="29500" r="200" /> 
</g>
<g style="fill:#000000; fill-opacity:0.0; 
stroke:#000000; stroke-width:100; stroke-opacity:1; 
stroke-linecap:round; stroke-linejoin:round;">
<path d="M48500 19000
L45000 19000
" />
<path d="M45000 19000
L45000 26000
" />
<path d="M45000 26000
L48500 26000
" />
</g>
<g style="fill:#000000; fill-opacity:0.0; 
stroke:#000000; stroke-width:0; stroke-opacity:1; 
stroke-linecap:round; stroke-linejoin:round;">
</g>
<g style="fill:#000000; fill-opacity:1.0; 
stroke:#000000; stroke-width:100; stroke-opacity:1; 
stroke-linecap:round; stroke-linejoin:round;">
<circle cx="48500" cy="26000" r="200" /> 
</g>
<g style="fill:#000000; fill-opacity:1.0; 
stroke:#000000; stroke-width:0; stroke-opacity:1; 
stroke-linecap:round; stroke-linejoin:round;">
</g>
<g style="fill:#000000; fill-opacity:1.0; 
stroke:#000000; stroke-width:100; stroke-opacity:1; 
stroke-linecap:round; stroke-linejoin:round;">
<circle cx="48500" cy="19000" r="200" /> 
</g>
<g style="fill:#000000; fill-opacity:1.0; 
stroke:#000000; stroke-width:0; stroke-opacity:1; 
stroke-linecap:round; stroke-linejoin:round;">
</g>
<g style="fill:#000000; fill-opacity:0.0; 
stroke:#000000; stroke-width:100; stroke-opacity:1; 
stroke-linecap:round; stroke-linejoin:round;">
<circle cx="89500" cy="22500" r="1410" /> 
</g>
<g style="fill:#000000; fill-opacity:0.0; 
stroke:#000000; stroke-width:120; stroke-opacity:1; 
stroke-linecap:round; stroke-linejoin:round;">
<path d="M89270 21790
L89730 21790
" />
<path d="M89500 22020
L89500 21560
" />
<path d="M89270 23540
L89730 23540
" />
</g>
<g style="fill:#000000; fill-opacity:0.0; 
stroke:#000000; stroke-width:100; stroke-opacity:1; 
stroke-linecap:round; stroke-linejoin:round;">
<polyline fill="none;"
points="89500,25000
89500,24000
" /> 
<polyline fill="none;"
points="89500,20000
89500,21000
" /> 
<path d="M89500 20000
L89500 20000
" />
<path d="M89370 19820
L89370 20170
" />
<path d="M89370 19990
L88770 19990
L88860 20050
L88910 20110
L88940 20170
" />
<path d="M89500 25000
L89500 25000
" />
<path d="M88830 25170
L88800 25140
L88770 25080
L88770 24940
L88800 24880
L88830 24850
L88890 24820
L88940 24820
L89030 24850
L89370 25190
L89370 24820
" />
<path d="M91370 21620
L91570 22220
L91770 21620
" />
<path d="M91880 21820
L92110 21820
" />
<path d="M91960 21620
L91960 22140
L91990 22190
L92050 22220
L92110 22220
" />
<path d="M92300 22220
L92300 21620
" />
<path d="M92560 22220
L92560 21910
L92530 21850
L92470 21820
L92390 21820
L92330 21850
L92300 21880
" />
<path d="M91550 22620
L91950 22620
L91690 23220
" />
<path d="M92200 23190
L92200 23220
L92170 23280
L92140 23310
" />
<path d="M92780 23220
L92430 23220
" />
<path d="M92610 23220
L92610 22620
L92550 22710
L92490 22760
L92430 22790
" />
<path d="M93120 22880
L93060 22850
L93030 22820
L93000 22760
L93000 22740
L93030 22680
L93060 22650
L93120 22620
L93230 22620
L93290 22650
L93320 22680
L93350 22740
L93350 22760
L93320 22820
L93290 22850
L93230 22880
L93120 22880
L93060 22910
L93030 22940
L93000 22990
L93000 23110
L93030 23160
L93060 23190
L93120 23220
L93230 23220
L93290 23190
L93320 23160
L93350 23110
L93350 22990
L93320 22940
L93290 22910
L93230 22880
" />
<path d="M93890 22620
L93600 22620
L93570 22910
L93600 22880
L93660 22850
L93800 22850
L93860 22880
L93890 22910
L93920 22960
L93920 23110
L93890 23160
L93860 23190
L93800 23220
L93660 23220
L93600 23190
L93570 23160
" />
<path d="M94090 22620
L94290 23220
L94490 22620
" />
</g>
<g style="fill:#000000; fill-opacity:0.0; 
stroke:#000000; stroke-width:0; stroke-opacity:1; 
stroke-linecap:round; stroke-linejoin:round;">
</g>
<g style="fill:#000000; fill-opacity:0.0; 
stroke:#000000; stroke-width:150; stroke-opacity:1; 
stroke-linecap:round; stroke-linejoin:round;">
<polyline fill="none;"
points="89000,30500
90000,30500
" /> 
</g>
<g style="fill:#000000; fill-opacity:0.0; 
stroke:#000000; stroke-width:100; stroke-opacity:1; 
stroke-linecap:round; stroke-linejoin:round;">
<polyline fill="none;"
points="89500,30000
89500,30500
" /> 
</g>
<g style="fill:#000000; fill-opacity:0.0; 
stroke:#000000; stroke-width:80; stroke-opacity:1; 
stroke-linecap:round; stroke-linejoin:round;">
<path d="M89190 30750
L89160 30730
L89100 30730
L89040 30750
L89000 30790
L88990 30830
L88970 30900
L88970 30960
L88990 31040
L89000 31070
L89040 31110
L89100 31130
L89140 31130
L89190 31110
L89210 31090
L89210 30960
L89140 30960
" />
<path d="M89390 31130
L89390 30730
L89610 31130
L89610 30730
" />
<path d="M89810 31130
L89810 30730
L89900 30730
L89960 30750
L90000 30790
L90010 30830
L90030 30900
L90030 30960
L90010 31040
L90000 31070
L89960 31110
L89900 31130
L89810 31130
" />
</g>
<g style="fill:#000000; fill-opacity:0.0; 
stroke:#000000; stroke-width:200; stroke-opacity:1; 
stroke-linecap:round; stroke-linejoin:round;">
<path d="M103690 15920
L104170 15920
" />
<path d="M103600 16200
L103930 15200
L104260 16200
" />
<path d="M104070 29680
L104210 29730
L104260 29770
L104310 29870
L104310 30010
L104260 30110
L104210 30150
L104120 30200
L103740 30200
L103740 29200
L104070 29200
L104170 29250
L104210 29300
L104260 29390
L104260 29490
L104210 29580
L104170 29630
L104070 29680
L103740 29680
" />
</g>
<g style="fill:#000000; fill-opacity:0.0; 
stroke:#000000; stroke-width:0; stroke-opacity:1; 
stroke-linecap:round; stroke-linejoin:round;">
</g>
<g style="fill:#000000; fill-opacity:0.0; 
stroke:#000000; stroke-width:120; stroke-opacity:1; 
stroke-linecap:round; stroke-linejoin:round;">
<rect x="93000" y="15000" width="3000" height="1000" rx="0" />
</g>
<g style="fill:#000000; fill-opacity:0.0; 
stroke:#000000; stroke-width:100; stroke-opacity:1; 
stroke-linecap:round; stroke-linejoin:round;">
<path d="M96000 15500
L97000 15500
" />
<path d="M93000 15500
L92000 15500
" />
<path d="M94020 14720
L93820 14440
" />
<path d="M93670 14720
L93670 14120
L93900 14120
L93960 14150
L93990 14180
L94020 14240
L94020 14320
L93990 14380
L93960 14410
L93900 14440
L93670 14440
" />
<path d="M94190 14320
L94420 14320
" />
<path d="M94270 14120
L94270 14640
L94300 14690
L94360 14720
L94420 14720
" />
<path d="M94610 14720
L94610 14120
" />
<path d="M94870 14720
L94870 14410
L94840 14350
L94780 14320
L94700 14320
L94640 14350
L94610 14380
" />
<path d="M95100 14320
L95240 14720
L95380 14320
" />
<path d="M93740 15120
L94110 15120
L93910 15350
L93990 15350
L94050 15380
L94080 15410
L94110 15460
L94110 15610
L94080 15660
L94050 15690
L93990 15720
L93820 15720
L93760 15690
L93740 15660
" />
<path d="M94310 15120
L94680 15120
L94480 15350
L94560 15350
L94620 15380
L94650 15410
L94680 15460
L94680 15610
L94650 15660
L94620 15690
L94560 15720
L94390 15720
L94330 15690
L94310 15660
" />
<path d="M94880 15120
L95280 15120
L95020 15720
" />
<path d="M89500 25000
L89500 29500
" />
<path d="M89500 29500
L89500 30000
" />
</g>
<g style="fill:#000000; fill-opacity:0.0; 
stroke:#000000; stroke-width:0; stroke-opacity:1; 
stroke-linecap:round; stroke-linejoin:round;">
</g>
<g style="fill:#000000; fill-opacity:1.0; 
stroke:#000000; stroke-width:100; stroke-opacity:1; 
stroke-linecap:round; stroke-linejoin:round;">
<circle cx="89500" cy="29500" r="200" /> 
</g>
<g style="fill:#000000; fill-opacity:1.0; 
stroke:#000000; stroke-width:100; stroke-opacity:1; 
stroke-linecap:round; stroke-linejoin:round;stroke-dasharray:118.11,218.11;">
</g>
<g style="fill:#000000; fill-opacity:0.0; 
stroke:#000000; stroke-width:100; stroke-opacity:1; 
stroke-linecap:round; stroke-linejoin:round;stroke-dasharray:118.11,218.11;">
<path d="M103000 28500
L103000 30500
" />
</g>
<g style="fill:#000000; fill-opacity:0.0; 
stroke:#000000; stroke-width:100; stroke-opacity:1; 
stroke-linecap:round; stroke-linejoin:round;">
</g>
<g style="fill:#000000; fill-opacity:0.0; 
stroke:#000000; stroke-width:100; stroke-opacity:1; 
stroke-linecap:round; stroke-linejoin:round;stroke-dasharray:118.11,218.11;">
<path d="M103000 30500
L105000 30500
" />
</g>
<g style="fill:#000000; fill-opacity:0.0; 
stroke:#000000; stroke-width:100; stroke-opacity:1; 
stroke-linecap:round; stroke-linejoin:round;">
</g>
<g style="fill:#000000; fill-opacity:0.0; 
stroke:#000000; stroke-width:100; stroke-opacity:1; 
stroke-linecap:round; stroke-linejoin:round;stroke-dasharray:118.11,218.11;">
<path d="M105000 30500
L105000 28500
" />
</g>
<g style="fill:#000000; fill-opacity:0.0; 
stroke:#000000; stroke-width:100; stroke-opacity:1; 
stroke-linecap:round; stroke-linejoin:round;">
</g>
<g style="fill:#000000; fill-opacity:0.0; 
stroke:#000000; stroke-width:100; stroke-opacity:1; 
stroke-linecap:round; stroke-linejoin:round;stroke-dasharray:118.11,218.11;">
<path d="M105000 28500
L103000 28500
" />
</g>
<g style="fill:#000000; fill-opacity:0.0; 
stroke:#000000; stroke-width:100; stroke-opacity:1; 
stroke-linecap:round; stroke-linejoin:round;">
</g>
<g style="fill:#000000; fill-opacity:0.0; 
stroke:#000000; stroke-width:100; stroke-opacity:1; 
stroke-linecap:round; stroke-linejoin:round;stroke-dasharray:118.11,218.11;">
<path d="M103000 14500
L103000 16500
" />
</g>
<g style="fill:#000000; fill-opacity:0.0; 
stroke:#000000; stroke-width:100; stroke-opacity:1; 
stroke-linecap:round; stroke-linejoin:round;">
</g>
<g style="fill:#000000; fill-opacity:0.0; 
stroke:#000000; stroke-width:100; stroke-opacity:1; 
stroke-linecap:round; stroke-linejoin:round;stroke-dasharray:118.11,218.11;">
<path d="M103000 16500
L105000 16500
" />
</g>
<g style="fill:#000000; fill-opacity:0.0; 
stroke:#000000; stroke-width:100; stroke-opacity:1; 
stroke-linecap:round; stroke-linejoin:round;">
</g>
<g style="fill:#000000; fill-opacity:0.0; 
stroke:#000000; stroke-width:100; stroke-opacity:1; 
stroke-linecap:round; stroke-linejoin:round;stroke-dasharray:118.11,218.11;">
<path d="M105000 16500
L105000 14500
" />
</g>
<g style="fill:#000000; fill-opacity:0.0; 
stroke:#000000; stroke-width:100; stroke-opacity:1; 
stroke-linecap:round; stroke-linejoin:round;">
</g>
<g style="fill:#000000; fill-opacity:0.0; 
stroke:#000000; stroke-width:100; stroke-opacity:1; 
stroke-linecap:round; stroke-linejoin:round;stroke-dasharray:118.11,218.11;">
<path d="M105000 14500
L103000 14500
" />
</g>
<g style="fill:#000000; fill-opacity:0.0; 
stroke:#000000; stroke-width:100; stroke-opacity:1; 
stroke-linecap:round; stroke-linejoin:round;">
<path d="M89500 15500
L89500 20000
" />
<path d="M92000 15500
L89500 15500
" />
<path d="M89500 29500
L103000 29500
" />
<path d="M97000 15500
L103000 15500
" />
</g> 
</svg>
